<?xml version="1.0" encoding="UTF-8"?>
<svg id="Layer_1" data-name="Layer 1" xmlns="http://www.w3.org/2000/svg" viewBox="0 0 1080 1080">
<defs>
    <style>
      .st0 {
        fill: none;
        stroke: #593721;
        stroke-linecap: round;
        stroke-linejoin: round;
        stroke-width: 2px;
      }

      .st1 {
        fill: #593721;
      }

      .st2 {
        fill: #593721;
      }

      .st3 {
        display: none;
      }
    </style>
  </defs>
  <g>
    <path class="st0" d="M164.7,1020.5H59.5v-105.2c19.2,47.8,57.3,86,105.2,105.2Z"/>
    <path class="st0" d="M166.8,1047.7H34.5v-132.4c24.1,60.2,72.2,108.3,132.4,132.4Z"/>
  </g>
  <g>
    <path class="st0" d="M917.5,59.5h105.2v105.2c-19.2-47.8-57.3-86-105.2-105.2Z"/>
    <path class="st0" d="M915.3,32.3h132.4v132.4c-24.1-60.2-72.2-108.3-132.4-132.4h0Z"/>
  </g>
  <g>
    <path class="st0" d="M917.5,1020.5h105.2v-105.2c-19.2,47.8-57.3,86-105.2,105.2Z"/>
    <path class="st0" d="M915.3,1047.7h132.4v-132.4c-24.1,60.2-72.2,108.3-132.4,132.4h0Z"/>
  </g>
  <g>
    <path class="st0" d="M164.7,59.5H59.5v105.2c19.2-47.8,57.3-86,105.2-105.2Z"/>
    <path class="st0" d="M166.8,32.3H34.5v132.4C58.6,104.4,106.6,56.4,166.8,32.3Z"/>
  </g>
  <rect class="st1" x="46.2" y="46.2" width="987.6" height="987.6" rx="247.6" ry="247.6"/>
  <circle cx="329.64" cy="540" r="90.3" fill="#ECE7E3"/>
  <circle cx="750.36" cy="540" r="90.3" fill="#ECE7E3"/>
  <circle cx="750.36" cy="274.47" r="90.3" fill="#ECE7E3"/>
  <circle cx="329.64" cy="805.53" r="90.3" fill="#ECE7E3"/>
  <circle cx="329.64" cy="274.47" r="90.3" fill="#ECE7E3"/>
  <circle cx="750.36" cy="805.53" r="90.3" fill="#ECE7E3"/>
</svg>