<?xml version="1.0" encoding="UTF-8"?>
<svg id="Layer_1" xmlns="http://www.w3.org/2000/svg" version="1.1" viewBox="0 0 450.2 450.2">
  <!-- Generator: Adobe Illustrator 29.2.1, SVG Export Plug-In . SVG Version: 2.1.0 Build 116)  -->
  <defs>
    <style>
      .st0 {
        stroke: #916e4e;
        stroke-width: 2px;
      }

      .st0, .st1 {
        fill: none;
        stroke-miterlimit: 10;
      }

      .st2 {
        fill: #916e4e;
      }

      .st1 {
        stroke: #de9641;
      }

      .st3 {
        fill: #ece7e3;
      }
    </style>
  </defs>
  <rect class="st3" width="450.2" height="450.2" rx="108.8" ry="108.8"/>
  <rect class="st1" x="10.5" y="10.5" width="429.2" height="429.2" rx="108.8" ry="108.8"/>
  <path class="st2" d="M115.5,110.5c0-6.8-2-12.7-6.1-17.6s-8.9-7.4-14.6-7.4h-6.5v-4.1h28.2v29.1h-1,0ZM111.4,374.5c2.7-18.9,4.1-36,4.1-51.2V81.4h48.6l-.3,230.4-48.9,62.7h-3.4ZM118.9,324.5l216.8-248.9-4.1,49.6-216.8,249.3,4.1-50h0ZM163.1,110.5v-29.1h28.2v4.1h-6.5c-5.7,0-10.5,2.5-14.6,7.4s-6.1,10.8-6.1,17.6h-1,0ZM258.9,364.3h6.5c5.9,0,10.8-2.4,14.8-7.2,4-4.8,6.1-10.7,6.3-17.8h.7v29.1h-28.2v-4.1h0ZM286.4,368.4v-226.3l49.3-66.4h3.1c-1.4,8.8-2.4,17.2-3.1,25.2s-1,17.2-1,27.3v240.3h-48.2ZM333.6,368.4v-29.1h1c.2,7.1,2.4,13,6.5,17.8s9,7.2,14.6,7.2h6.1v4.1h-28.2Z"/>
  <line class="st0" x1="80" y1="390" x2="368" y2="390"/>
</svg>