<?xml version="1.0" encoding="UTF-8"?>
<svg id="Layer_1" data-name="Layer 1" xmlns="http://www.w3.org/2000/svg" viewBox="0 0 450.17 450.17">
  <rect x="0" y="0" width="450.17" height="450.17" rx="108.83" ry="108.83" fill="#ece7e3"/>
  <rect x="10.47" y="10.47" width="429.23" height="429.23" rx="108.83" ry="108.83" fill="none" stroke="#de9641" stroke-miterlimit="10"/>
  <path d="M116.52,77.69c2.26,1.1,5.72,2.19,10.36,3.28,4.64,1.1,9.8,2.05,15.46,2.87,5.66.82,10.87,1.23,15.63,1.23l-41.46,4.51v-11.89ZM333.99,85.07v17.22H116.52v-17.22h217.47ZM154.24,101.06v1.23c-10.42.28-18.75,4.17-24.98,11.69-6.23,7.52-9.34,17.7-9.34,30.54v4.51l-3.4.41v-48.38h37.72ZM200.79,342.55v29.93h-27.18v-4.1h4.42c5.89,0,10.93-2.52,15.12-7.58,4.19-5.05,6.4-11.13,6.63-18.25h1.02ZM250.74,86.71v285.77h-50.97V86.71h50.97ZM249.72,342.55h1.02c.22,7.11,2.43,13.19,6.63,18.25,4.19,5.06,9.23,7.58,15.12,7.58h4.42v4.1h-27.18v-29.93ZM333.99,77.69v11.89l-41.46-4.51c4.98,0,10.25-.41,15.8-1.23,5.55-.82,10.7-1.77,15.46-2.87,4.76-1.09,8.15-2.18,10.19-3.28ZM333.99,101.06v48.38l-3.4-.41v-4.51c0-12.84-3.12-23.02-9.34-30.54-6.23-7.51-14.67-11.41-25.32-11.69v-1.23h38.06Z" fill="#916e4e"/>
</svg>