<?xml version="1.0" encoding="UTF-8"?>
<svg id="Layer_1" xmlns="http://www.w3.org/2000/svg" version="1.1" viewBox="0 0 450.2 450.2">
  <!-- Generator: Adobe Illustrator 29.2.1, SVG Export Plug-In . SVG Version: 2.1.0 Build 116)  -->
  <defs>
    <style>
      .st0 {
        stroke: #916e4e;
        stroke-width: 2px;
      }

      .st0, .st1 {
        fill: none;
        stroke-miterlimit: 10;
      }

      .st2 {
        fill: #916e4e;
      }

      .st1 {
        stroke: #de9641;
      }

      .st3 {
        fill: #ece7e3;
      }
    </style>
  </defs>
  <rect class="st3" width="450.2" height="450.2" rx="108.8" ry="108.8"/>
  <rect class="st1" x="10.5" y="10.5" width="429.2" height="429.2" rx="108.8" ry="108.8"/>
  <path class="st2" d="M299.6,81.6h27.2l-.3,4.1h-4.1c-5.9,0-11,2.5-15.3,7.6-4.3,5.1-6.5,11.1-6.5,18.2h-1v-29.9h0ZM300.6,338.6c.2,7.1,2.4,13.2,6.6,18.2s9.2,7.6,15.1,7.6h4.4v4.1h-27.2v-29.9h1,0ZM300.6,81.6v287h-51V81.6h51ZM254,81.6c-1.1,5.7-2.3,11.5-3.4,17.2h-23.4c-13.8,0-24.5,5.3-32.1,15.8-7.6,10.5-11.5,24.5-11.7,42-.2,3.8-.2,8,.2,12.5s1,8.6,1.9,12.1c2.3,10.4,5.6,18.7,9.9,25,4.3,6.3,8.9,10.9,13.8,13.9,4.9,3,9.5,5.1,13.9,6.1s9.5,1.6,15.1,1.6v4.1c-9.7,7.7-19.8,12.4-30.1,14.1-10.3,1.8-20.3,1-29.9-2.5-9.6-3.4-18.2-8.9-25.6-16.6-7.5-7.6-13.4-17.2-17.7-28.7-4.3-11.5-6.2-24.2-5.8-38.1.5-15,3.7-28.5,9.7-40.4,6-11.9,15.1-21.2,27.2-28.1,12.1-6.8,27.9-10.2,47.4-10.2h40.8ZM250.6,368.6h-27.2v-4.1h4.4c5.9,0,10.9-2.5,15.1-7.6,4.2-5,6.4-11.1,6.6-18.2h1v29.9h0Z"/>
  <line class="st0" x1="80" y1="390" x2="368" y2="390"/>
</svg>