<svg width="192" height="88" viewBox="0 0 192 88" fill="none" xmlns="http://www.w3.org/2000/svg">
<g clip-path="url(#clip0_389_89)">
<path d="M105.985 28.1408L77.7758 31.4926C70.4837 32.3591 65.2747 38.9729 66.1412 46.2651L69.493 74.4738C70.3595 81.7659 76.9733 86.9749 84.2655 86.1084L112.474 82.7565C119.766 81.8901 124.975 75.2762 124.109 67.9841L120.757 39.7754C119.89 32.4833 113.277 27.2743 105.985 28.1408Z" fill="#ECE7E3"/>
<path d="M104.866 29.562L79.1977 32.612C71.9056 33.4785 66.6966 40.0923 67.563 47.3844L70.613 73.0527C71.4795 80.3448 78.0934 85.5538 85.3855 84.6873L111.054 81.6373C118.346 80.7708 123.555 74.157 122.688 66.8649L119.638 41.1967C118.772 33.9045 112.158 28.6955 104.866 29.562Z" stroke="#DE9641" stroke-width="0.5" stroke-miterlimit="10"/>
<path d="M101.436 39.1725L104.734 38.7806L104.793 39.278L104.256 39.3418C103.542 39.4267 102.967 39.8063 102.531 40.4794C102.096 41.1537 101.915 41.9232 101.99 42.7891L101.866 42.8038L101.435 39.1726L101.436 39.1725ZM105.266 70.3461C105.396 71.2054 105.752 71.9112 106.333 72.4647C106.914 73.0182 107.562 73.2513 108.277 73.1664L108.813 73.1026L108.872 73.6001L105.575 73.9919L105.143 70.3607L105.267 70.346L105.266 70.3461ZM101.56 39.1577L105.697 73.9773L99.5134 74.7121L95.376 39.8925L101.56 39.1577ZM95.4997 39.8778L95.7539 42.0167L84.2525 43.3834L83.9984 41.2445L95.4997 39.8778ZM97.4739 56.4917L97.7221 58.5809L88.2408 59.7075L87.9925 57.6184L97.4739 56.4917ZM99.383 72.5585L99.6371 74.6974L87.6408 76.1229L88.3766 73.8663L99.3842 72.5583L99.383 72.5585ZM84.8216 66.1167C85.459 67.7229 86.2191 69.0868 87.1053 70.2082C87.9917 71.3308 88.9949 72.1528 90.1163 72.6753C91.2377 73.1978 92.4858 73.378 93.8592 73.2149L95.5971 75.1775L87.517 76.1376L84.4091 66.1657L84.8216 66.1167ZM87.8494 52.8936L87.8908 53.2418C88.0367 54.4695 88.4878 55.4494 89.2444 56.1839C90.0009 56.9183 90.8896 57.2421 91.9102 57.1541L91.922 57.2536L88.0057 57.7189L87.4383 52.9436L87.8508 52.8946L87.8494 52.8936ZM92.1452 59.1427L92.157 59.2422C91.1444 59.397 90.3552 59.9103 89.7898 60.7846C89.2244 61.6589 89.0146 62.7099 89.1603 63.9365L89.2076 64.3344L88.7951 64.3834L88.2277 59.6082L92.144 59.1428L92.1452 59.1427ZM85.1755 40.6001C85.7687 40.6638 86.4074 40.706 87.0926 40.7255C87.7777 40.7449 88.423 40.7187 89.0272 40.6469L84.0622 41.7918L83.8908 40.3492C84.1541 40.4533 84.5823 40.5365 85.1743 40.6003L85.1755 40.6001ZM88.8523 42.6855L88.8641 42.785C87.5761 42.9725 86.6104 43.5744 85.9649 44.5924C85.3195 45.6115 85.0879 46.8829 85.2691 48.4079L85.34 49.0048L84.9275 49.0539L84.236 43.234L88.8535 42.6853L88.8523 42.6855Z" fill="#916E4E"/>
</g>
<g clip-path="url(#clip1_389_89)">
<path d="M178.528 6.90309L150.21 4.65469C142.889 4.07347 136.484 9.53663 135.903 16.857L133.654 45.175C133.073 52.4954 138.536 58.9009 145.857 59.4821L174.175 61.7305C181.495 62.3118 187.901 56.8486 188.482 49.5282L190.73 21.2102C191.311 13.8898 185.848 7.48431 178.528 6.90309Z" fill="#ECE7E3"/>
<path d="M177.151 8.07706L151.384 6.03116C144.063 5.44993 137.658 10.9131 137.077 18.2335L135.031 44.0012C134.449 51.3215 139.913 57.727 147.233 58.3083L173.001 60.3542C180.321 60.9354 186.726 55.4722 187.308 48.1519L189.354 22.3842C189.935 15.0638 184.472 8.65829 177.151 8.07706Z" stroke="#DE9641" stroke-width="0.5" stroke-miterlimit="10"/>
<path d="M177.535 48.1786C177.566 49.1861 177.849 49.9868 178.385 50.5821C178.922 51.1775 179.561 51.5052 180.306 51.5644L180.969 51.617L180.929 52.1164L176.335 51.7516L176.625 48.1063L177.536 48.1787L177.535 48.1786ZM177.659 51.8567L174.762 51.6267L174.423 20.7464L176.267 15.8678L176.64 15.8974L177.658 51.8566L177.659 51.8567ZM175.03 48.7837L174.804 51.63L172.28 51.4296L172.315 50.9802L172.936 51.0295C173.379 51.0646 173.775 50.8706 174.127 50.4463C174.481 50.0221 174.678 49.5439 174.721 49.0104L174.733 48.8606C174.735 48.8277 174.738 48.7948 174.74 48.7607L175.03 48.7837ZM176.406 27.788L162.185 51.6331L160.607 41.6086L176.269 15.8679L176.404 27.7879L176.406 27.788ZM164.144 47.4169L162.185 51.6331L161.771 51.6002C161.837 50.7672 161.773 49.925 161.576 49.0722C161.38 48.2196 161.053 47.1886 160.594 45.9793L150.344 19.2868L151.107 13.8702L164.144 47.4169ZM151.101 46.9843L151.089 47.1341C151.047 47.6676 151.16 48.1705 151.428 48.644C151.696 49.1176 152.065 49.3723 152.532 49.4095L153.154 49.4588L153.118 49.9082L150.593 49.7077L150.819 46.8614L151.109 46.8844L151.101 46.9843ZM151.107 13.8702L154.529 26.9053L150.636 49.7111L143.973 49.1821L150.735 13.8406L151.107 13.8702ZM145.255 49.2839L140.702 48.9224L140.742 48.4231L141.405 48.4757C142.122 48.5326 142.792 48.3088 143.415 47.8056C144.038 47.3023 144.458 46.5561 144.675 45.5696L145.544 45.6386L145.255 49.2839Z" fill="#916E4E"/>
</g>
<g clip-path="url(#clip2_389_89)">
<path d="M47.6919 4.81564L19.4444 1.80828C12.1422 1.03086 5.59243 6.32019 4.81501 13.6223L1.80765 41.8699C1.03023 49.172 6.31957 55.7218 13.6217 56.4992L41.8692 59.5066C49.1714 60.284 55.7212 54.9946 56.4986 47.6925L59.5059 19.445C60.2834 12.1428 54.994 5.59306 47.6919 4.81564Z" fill="#ECE7E3"/>
<path d="M46.2846 5.95226L20.5811 3.21575C13.2789 2.43833 6.72915 7.72766 5.95173 15.0298L3.21522 40.7333C2.4378 48.0355 7.72713 54.5853 15.0293 55.3627L40.7328 58.0992C48.0349 58.8766 54.5847 53.5873 55.3621 46.2851L58.0987 20.5816C58.8761 13.2795 53.5867 6.72968 46.2846 5.95226Z" stroke="#DE9641" stroke-width="0.5" stroke-miterlimit="10"/>
<path d="M41.5627 14.1865L44.8648 14.5381L44.7705 15.0318L44.5226 15.0054C44.3853 14.9908 44.3027 14.982 44.2748 14.979C43.5592 14.9028 42.9081 15.1444 42.3192 15.7022C41.7313 16.2613 41.3903 16.972 41.2983 17.8358L41.1744 17.8226L41.5615 14.1864L41.5627 14.1865ZM38.3616 45.431C38.2976 46.2978 38.4874 47.065 38.931 47.734C39.3746 48.4029 39.9543 48.7742 40.6699 48.8504L40.9384 48.879C41.0903 48.8952 41.1802 48.9048 41.2069 48.9076L41.1539 49.4057L37.8518 49.0542L38.2389 45.418L38.3628 45.4312L38.3616 45.431ZM41.6866 14.1997L37.9745 49.0672L31.7822 48.408L35.4943 13.5405L41.6866 14.1997ZM36.0301 13.5975C35.8186 14.2802 35.607 14.963 35.3943 15.6456L32.5454 15.3423C30.8676 15.1637 29.4983 15.6654 28.4401 16.8453C27.3818 18.0264 26.7268 19.678 26.4726 21.7999C26.3964 22.2623 26.3485 22.7696 26.3316 23.3207C26.3147 23.8718 26.3389 24.372 26.4024 24.8137C26.5438 26.1053 26.8344 27.161 27.2756 27.9796C27.7179 28.7995 28.2141 29.4236 28.767 29.8511C29.3197 30.2798 29.8569 30.5888 30.3798 30.7784C30.9027 30.968 31.5079 31.1 32.1955 31.1732L32.1425 31.6713C30.8601 32.476 29.5818 32.9186 28.3063 33.0015C27.0307 33.0844 25.8312 32.8559 24.7055 32.3159C23.5798 31.7758 22.6126 30.9934 21.8042 29.9662C20.9944 28.94 20.4038 27.7013 20.0287 26.2509C19.6547 24.8006 19.5847 23.2315 19.8196 21.5437C20.0699 19.7237 20.6354 18.1289 21.5179 16.7632C22.4007 15.3963 23.6236 14.3765 25.1832 13.7033C26.744 13.0303 28.7078 12.8192 31.0744 13.0711L36.0287 13.5986L36.0301 13.5975ZM31.9061 48.4211L28.604 48.0696L28.657 47.5715L28.9255 47.6001C29.0774 47.6162 29.1673 47.6258 29.194 47.6287C29.9096 47.7048 30.5545 47.4639 31.129 46.9033C31.7033 46.344 32.0505 45.6339 32.1705 44.7719L32.2944 44.7851L31.9073 48.4213L31.9061 48.4211Z" fill="#916E4E"/>
</g>
<defs>
<clipPath id="clip0_389_89">
<rect width="55" height="55" fill="white" transform="translate(64.5723 33.0615) rotate(-6.77633)"/>
</clipPath>
<clipPath id="clip1_389_89">
<rect width="55" height="55" fill="white" transform="translate(136.955 3.60229) rotate(4.53965)"/>
</clipPath>
<clipPath id="clip2_389_89">
<rect width="55" height="55" fill="white" transform="translate(6.22266 0.400635) rotate(6.07708)"/>
</clipPath>
</defs>
</svg>
