<?xml version="1.0" encoding="UTF-8"?>
<svg id="Layer_1" xmlns="http://www.w3.org/2000/svg" version="1.1" viewBox="0 0 450.2 450.2">
  <!-- Generator: Adobe Illustrator 29.2.1, SVG Export Plug-In . SVG Version: 2.1.0 Build 116)  -->
  <defs>
    <style>
      .st0 {
        stroke: #916e4e;
        stroke-width: 2px;
      }

      .st0, .st1 {
        fill: none;
        stroke-miterlimit: 10;
      }

      .st2 {
        fill: #916e4e;
      }

      .st1 {
        stroke: #de9641;
      }

      .st3 {
        fill: #ece7e3;
      }
    </style>
  </defs>
  <rect class="st3" width="450.2" height="450.2" rx="108.8" ry="108.8"/>
  <rect class="st1" x="10.5" y="10.5" width="429.2" height="429.2" rx="108.8" ry="108.8"/>
  <path class="st2" d="M200.6,111.5h-1c-.2-7.1-2.4-13.2-6.6-18.2-4.2-5.1-9.2-7.6-15.1-7.6h-4.4v-4.1h27.2v29.9h0ZM200.6,338.6v29.9h-27.2v-4.1h4.4c5.9,0,10.9-2.5,15.1-7.6,4.2-5,6.4-11.1,6.6-18.2h1.1ZM250.6,81.6v287h-51V81.6h51ZM249.6,111.5v-29.9h27.2v4.1h-4.4c-5.9,0-10.9,2.5-15.1,7.6-4.2,5.1-6.4,11.1-6.6,18.2h-1.1ZM249.6,338.6h1c.2,7.1,2.4,13.2,6.6,18.2,4.2,5.1,9.2,7.6,15.1,7.6h4.4v4.1h-27.2v-29.9h0Z"/>
  <line class="st0" x1="80" y1="390" x2="368" y2="390"/>
</svg>