<?xml version="1.0" encoding="UTF-8"?>
<svg id="Layer_1" data-name="Layer 1" xmlns="http://www.w3.org/2000/svg" viewBox="0 0 450.17 450.17">
  <rect x="0" y="0" width="450.17" height="450.17" rx="108.83" ry="108.83" fill="#ece7e3"/>
  <rect x="10.47" y="10.47" width="429.23" height="429.23" rx="108.83" ry="108.83" fill="none" stroke="#de9641" stroke-miterlimit="10"/>
  <path d="M323.46,342.75c3.63,9.29,8.21,15.93,13.76,19.88,5.55,3.97,10.93,5.95,16.14,5.95h3.06v4.1h-72.72v-4.1h3.06c2.72,0,5.44-1.03,8.15-3.08,2.72-2.05,4.65-4.98,5.78-8.82,1.14-3.82.8-8.47-1.02-13.94h23.79ZM229.67,77.48c0,3.01.8,7.17,2.38,12.5,1.59,5.33,3.34,10.87,5.27,16.61,1.93,5.74,3.74,10.87,5.44,15.38,1.7,4.51,2.89,7.58,3.57,9.22l88.01,240.26h-24.81s-84.27-243.95-84.27-243.95l1.36-50.02h3.06ZM290.84,275.1v17.22h-99.9v-17.22h99.9ZM247.34,156.61l-70.68,213.61h-61.16S226.61,77.48,226.61,77.48l20.73,79.13ZM186.86,361.82c3.4,4.51,7.36,6.77,11.89,6.77h3.06v4.1h-108.06v-4.1h2.72c5.21,0,10.53-1.98,15.97-5.95,5.44-3.96,10.08-10.59,13.93-19.88h59.46c-2.72,8.2-2.38,14.55,1.02,19.06Z" fill="#916e4e"/>
</svg>