<?xml version="1.0" encoding="UTF-8"?>
<svg id="Layer_1" data-name="Layer 1" xmlns="http://www.w3.org/2000/svg" viewBox="0 0 450.17 450.17">
  <rect x="0" y="0" width="450.17" height="450.17" rx="108.83" ry="108.83" fill="#ece7e3"/>
  <rect x="10.47" y="10.47" width="429.23" height="429.23" rx="108.83" ry="108.83" fill="none" stroke="#de9641" stroke-miterlimit="10"/>
  <path d="M115.5,110.49c0-6.84-2.04-12.71-6.12-17.63-4.08-4.92-8.95-7.38-14.61-7.38h-6.46v-4.1h28.2v29.11h-1.02ZM111.42,374.53c2.72-18.86,4.08-35.95,4.08-51.25V81.38h48.59l-.34,230.42-48.93,62.73h-3.4ZM118.9,324.51l216.79-248.87-4.08,49.61-216.79,249.28,4.08-50.02ZM163.07,110.49v-29.11h28.2v4.1h-6.46c-5.67,0-10.53,2.46-14.61,7.38-4.08,4.92-6.12,10.79-6.12,17.63h-1.02ZM258.89,364.28h6.46c5.89,0,10.82-2.4,14.78-7.18,3.96-4.79,6.06-10.73,6.29-17.83h.68v29.11h-28.2v-4.1ZM286.42,368.38v-226.32l49.27-66.42h3.06c-1.36,8.75-2.38,17.15-3.06,25.21-.68,8.06-1.02,17.15-1.02,27.27v240.26h-48.25ZM333.65,368.38v-29.11h1.02c.22,7.1,2.38,13.05,6.46,17.83,4.08,4.78,8.95,7.18,14.61,7.18h6.12v4.1h-28.2Z" fill="#916e4e"/>
</svg>