<?xml version="1.0" encoding="UTF-8"?>
<svg id="Layer_1" xmlns="http://www.w3.org/2000/svg" version="1.1" viewBox="0 0 450.2 450.2">
  <!-- Generator: Adobe Illustrator 29.2.1, SVG Export Plug-In . SVG Version: 2.1.0 Build 116)  -->
  <defs>
    <style>
      .st0 {
        stroke: #916e4e;
        stroke-width: 2px;
      }

      .st0, .st1 {
        fill: none;
        stroke-miterlimit: 10;
      }

      .st2 {
        fill: #916e4e;
      }

      .st1 {
        stroke: #de9641;
      }

      .st3 {
        fill: #ece7e3;
      }
    </style>
  </defs>
  <rect class="st3" width="450.2" height="450.2" rx="108.8" ry="108.8"/>
  <rect class="st1" x="10.5" y="10.5" width="429.2" height="429.2" rx="108.8" ry="108.8"/>
  <path class="st2" d="M293.7,85.3h27.2v4.1h-4.4c-5.9,0-10.9,2.5-15.1,7.6s-6.4,11.1-6.6,18.2h-1v-29.9h-.1ZM294.7,342.3c.2,7.1,2.4,13.2,6.6,18.2s9.2,7.6,15.1,7.6h4.4v4.1h-27.2v-29.9h1.1ZM294.7,85.3v287h-51V85.3h51ZM244.8,85.3v17.6h-94.8v-17.6h94.8ZM244.8,222.2v17.2h-78.2v-17.2h78.2ZM244.8,354.6v17.6h-98.9l8.2-17.6h90.7ZM132.7,288.2c3.6,13.7,8.5,25.5,14.6,35.5s13.5,17.6,22.1,23,18.6,8,29.9,8l12.2,17.6h-66.6l-15.6-84.1h3.4ZM170,183.7v2.9c0,10.1,2.7,18.5,8.2,25.2s12.4,10.2,20.7,10.5v.8h-32.3v-39.4h3.4ZM198.9,238.6v.8c-8.4.3-15.3,3.7-20.7,10.2-5.4,6.6-8.2,14.9-8.2,25v3.3h-3.4v-39.4h32.3,0ZM160.2,81.2c4.8,1.1,9.9,2.1,15.5,2.9s10.8,1.2,15.8,1.2l-41.5,4.5v-11.9c2,1.1,5.4,2.2,10.2,3.3h0ZM188.1,101.7v.8c-10.6.3-19.1,4.2-25.3,11.9-6.2,7.7-9.3,17.8-9.3,30.3v4.9h-3.4v-48h38.1-.1Z"/>
  <line class="st0" x1="80" y1="390" x2="368" y2="390"/>
</svg>