<?xml version="1.0" encoding="UTF-8"?>
<svg id="Layer_1" data-name="Layer 1" xmlns="http://www.w3.org/2000/svg" viewBox="0 0 450.17 450.17">
  <rect x="0" y="0" width="450.17" height="450.17" rx="108.83" ry="108.83" fill="#ece7e3"/>
  <rect x="10.47" y="10.47" width="429.23" height="429.23" rx="108.83" ry="108.83" fill="none" stroke="#de9641" stroke-miterlimit="10"/>
  <path d="M293.72,81.58h27.18v4.1h-4.42c-5.89,0-10.93,2.53-15.12,7.58-4.19,5.06-6.4,11.14-6.63,18.25h-1.02v-29.93ZM294.74,338.65c.23,7.11,2.44,13.19,6.63,18.25,4.19,5.06,9.23,7.58,15.12,7.58h4.42v4.1h-27.18v-29.93h1.02ZM294.74,81.58v287h-50.97V81.58h50.97ZM243.77,111.51c-.22-7.1-2.43-13.18-6.63-18.25-4.19-5.05-9.23-7.58-15.12-7.58h-4.42v-4.1h27.18v29.93h-1.02ZM244.79,350.95v17.63h-98.88s8.16-17.63,8.16-17.63h90.73ZM132.66,284.53c3.63,13.67,8.49,25.49,14.61,35.46,6.12,9.98,13.48,17.63,22.09,22.96,8.61,5.33,18.58,8,29.9,8l12.23,17.63h-66.6s-15.63-84.05-15.63-84.05h3.4Z" fill="#916e4e"/>
</svg>