<?xml version="1.0" encoding="UTF-8"?>
<svg id="Layer_1" xmlns="http://www.w3.org/2000/svg" version="1.1" viewBox="0 0 450.2 450.2">
  <!-- Generator: Adobe Illustrator 29.2.1, SVG Export Plug-In . SVG Version: 2.1.0 Build 116)  -->
  <defs>
    <style>
      .st0 {
        stroke: #916e4e;
        stroke-width: 2px;
      }

      .st0, .st1 {
        fill: none;
        stroke-miterlimit: 10;
      }

      .st2 {
        fill: #916e4e;
      }

      .st1 {
        stroke: #de9641;
      }

      .st3 {
        fill: #ece7e3;
      }
    </style>
  </defs>
  <rect class="st3" width="450.2" height="450.2" rx="108.8" ry="108.8"/>
  <rect class="st1" x="10.5" y="10.5" width="429.2" height="429.2" rx="108.8" ry="108.8"/>
  <path class="st2" d="M116.5,77.7c2.3,1.1,5.7,2.2,10.4,3.3,4.6,1.1,9.8,2.1,15.5,2.9s10.9,1.2,15.6,1.2l-41.5,4.5v-11.9h0ZM334,85.1v17.2H116.5v-17.2h217.5ZM154.2,101.1v1.2c-10.4.3-18.8,4.2-25,11.7-6.2,7.5-9.3,17.7-9.3,30.5v4.5l-3.4.4v-48.4h37.7,0ZM200.8,342.5v29.9h-27.2v-4.1h4.4c5.9,0,10.9-2.5,15.1-7.6,4.2-5,6.4-11.1,6.6-18.2h1,0ZM250.7,86.7v285.8h-51V86.7h51ZM249.7,342.5h1c.2,7.1,2.4,13.2,6.6,18.2,4.2,5.1,9.2,7.6,15.1,7.6h4.4v4.1h-27.2v-29.9h0ZM334,77.7v11.9l-41.5-4.5c5,0,10.2-.4,15.8-1.2s10.7-1.8,15.5-2.9c4.8-1.1,8.1-2.2,10.2-3.3h0ZM334,101.1v48.4l-3.4-.4v-4.5c0-12.8-3.1-23-9.3-30.5-6.2-7.5-14.7-11.4-25.3-11.7v-1.2h38.1Z"/>
  <line class="st0" x1="80" y1="390" x2="368" y2="390"/>
</svg>