<?xml version="1.0" encoding="UTF-8"?>
<svg id="Layer_1" data-name="Layer 1" xmlns="http://www.w3.org/2000/svg" viewBox="0 0 450.17 450.17">
  <rect x="0" y="0" width="450.17" height="450.17" rx="108.83" ry="108.83" fill="#ece7e3"/>
  <rect x="10.47" y="10.47" width="429.23" height="429.23" rx="108.83" ry="108.83" fill="none" stroke="#de9641" stroke-miterlimit="10"/>
  <path d="M200.62,111.51h-1.02c-.23-7.1-2.44-13.18-6.63-18.25-4.19-5.05-9.23-7.58-15.12-7.58h-4.42v-4.1h27.18v29.93ZM200.62,338.65v29.93h-27.18v-4.1h4.42c5.89,0,10.93-2.52,15.12-7.58,4.19-5.05,6.4-11.13,6.63-18.25h1.02ZM250.57,81.58v287h-50.97V81.58h50.97ZM249.55,111.51v-29.93h27.18v4.1h-4.42c-5.89,0-10.93,2.53-15.12,7.58-4.19,5.06-6.4,11.14-6.63,18.25h-1.02ZM249.55,338.65h1.02c.22,7.11,2.43,13.19,6.63,18.25,4.19,5.06,9.23,7.58,15.12,7.58h4.42v4.1h-27.18v-29.93Z" fill="#916e4e"/>
</svg>