<?xml version="1.0" encoding="UTF-8"?>
<svg id="Layer_1" data-name="Layer 1" xmlns="http://www.w3.org/2000/svg" viewBox="0 0 450.17 450.17">
  <rect x="0" y="0" width="450.17" height="450.17" rx="108.83" ry="108.83" fill="#ece7e3"/>
  <rect x="10.47" y="10.47" width="429.23" height="429.23" rx="108.83" ry="108.83" fill="none" stroke="#de9641" stroke-miterlimit="10"/>
  <path d="M299.57,81.58h27.18s-.34,4.1-.34,4.1h-2.04c-1.13,0-1.81,0-2.04,0-5.89,0-10.98,2.53-15.29,7.58-4.3,5.06-6.46,11.14-6.46,18.25h-1.02v-29.93ZM300.59,338.65c.23,7.11,2.44,13.19,6.63,18.25,4.19,5.06,9.23,7.58,15.12,7.58h2.21c1.25,0,1.99,0,2.21,0v4.1h-27.18v-29.93h1.02ZM300.59,81.58v287h-50.97V81.58h50.97ZM254.03,81.58c-1.13,5.74-2.26,11.48-3.4,17.22h-23.45c-13.81,0-24.52,5.27-32.11,15.79-7.59,10.53-11.49,24.54-11.72,42.03-.22,3.83-.17,8,.17,12.5s.97,8.55,1.87,12.09c2.27,10.39,5.55,18.73,9.85,25.01,4.31,6.29,8.89,10.94,13.76,13.94,4.87,3.01,9.51,5.06,13.93,6.15,4.42,1.09,9.46,1.64,15.12,1.64v4.1c-9.74,7.66-19.76,12.37-30.07,14.15-10.31,1.78-20.27.96-29.9-2.46-9.63-3.42-18.18-8.95-25.65-16.61-7.48-7.65-13.36-17.22-17.67-28.7-4.3-11.48-6.23-24.19-5.78-38.13.46-15.03,3.68-28.5,9.68-40.38,6-11.89,15.07-21.25,27.18-28.08,12.12-6.83,27.92-10.25,47.4-10.25h40.78ZM250.64,368.58h-27.18v-4.1h2.21c1.25,0,1.99,0,2.21,0,5.89,0,10.93-2.52,15.12-7.58,4.19-5.05,6.4-11.13,6.63-18.25h1.02v29.93Z" fill="#916e4e"/>
</svg>