<?xml version="1.0" encoding="UTF-8"?>
<svg id="Layer_1" data-name="Layer 1" xmlns="http://www.w3.org/2000/svg" viewBox="0 0 450.17 450.17">
  <rect x="0" y="0" width="450.17" height="450.17" rx="108.83" ry="108.83" fill="#ece7e3"/>
  <rect x="10.47" y="10.47" width="429.23" height="429.23" rx="108.83" ry="108.83" fill="none" stroke="#de9641" stroke-miterlimit="10"/>
  <path d="M293.72,85.27h27.18v4.1h-4.42c-5.89,0-10.93,2.53-15.12,7.58-4.19,5.06-6.4,11.14-6.63,18.25h-1.02v-29.93ZM294.74,342.34c.23,7.11,2.44,13.19,6.63,18.25,4.19,5.06,9.23,7.58,15.12,7.58h4.42v4.1h-27.18v-29.93h1.02ZM294.74,85.27v287h-50.97V85.27h50.97ZM244.79,85.27v17.63h-94.8v-17.63h94.8ZM244.79,222.21v17.22h-78.15v-17.22h78.15ZM244.79,354.64v17.63h-98.88s8.16-17.63,8.16-17.63h90.73ZM132.66,288.22c3.63,13.67,8.49,25.49,14.61,35.46,6.12,9.98,13.48,17.63,22.09,22.96,8.61,5.33,18.58,8,29.9,8l12.23,17.63h-66.6s-15.63-84.05-15.63-84.05h3.4ZM170.04,183.67v2.87c0,10.12,2.72,18.52,8.16,25.22,5.44,6.7,12.35,10.19,20.73,10.46v.82h-32.28v-39.36h3.4ZM198.92,238.61v.82c-8.38.28-15.29,3.69-20.73,10.25-5.44,6.56-8.16,14.9-8.16,25.01v3.28h-3.4v-39.36h32.28ZM160.18,81.17c4.76,1.09,9.91,2.05,15.46,2.87,5.55.82,10.82,1.23,15.8,1.23l-41.46,4.51v-11.89c2.04,1.1,5.44,2.19,10.19,3.28ZM188.05,101.67v.82c-10.65.28-19.08,4.24-25.31,11.89-6.23,7.66-9.34,17.77-9.34,30.34v4.92h-3.4v-47.97h38.06Z" fill="#916e4e"/>
</svg>