<?xml version="1.0" encoding="UTF-8"?>
<svg id="Layer_1" xmlns="http://www.w3.org/2000/svg" version="1.1" viewBox="0 0 450.2 450.2">
  <!-- Generator: Adobe Illustrator 29.2.1, SVG Export Plug-In . SVG Version: 2.1.0 Build 116)  -->
  <defs>
    <style>
      .st0 {
        stroke: #916e4e;
        stroke-width: 2px;
      }

      .st0, .st1 {
        fill: none;
        stroke-miterlimit: 10;
      }

      .st2 {
        fill: #916e4e;
      }

      .st1 {
        stroke: #de9641;
      }

      .st3 {
        fill: #ece7e3;
      }
    </style>
  </defs>
  <rect class="st3" width="450.2" height="450.2" rx="108.8" ry="108.8"/>
  <rect class="st1" x="10.5" y="10.5" width="429.2" height="429.2" rx="108.8" ry="108.8"/>
  <path class="st2" d="M293.7,81.6h27.2v4.1h-4.4c-5.9,0-10.9,2.5-15.1,7.6-4.2,5.1-6.4,11.1-6.6,18.2h-1v-29.9h0ZM294.7,338.6c.2,7.1,2.4,13.2,6.6,18.2s9.2,7.6,15.1,7.6h4.4v4.1h-27.2v-29.9h1,0ZM294.7,81.6v287h-51V81.6h51ZM243.8,111.5c-.2-7.1-2.4-13.2-6.6-18.2-4.2-5.1-9.2-7.6-15.1-7.6h-4.4v-4.1h27.2v29.9h-1,0ZM244.8,351v17.6h-98.9l8.2-17.6h90.7,0ZM132.7,284.5c3.6,13.7,8.5,25.5,14.6,35.5,6.1,10,13.5,17.6,22.1,23s18.6,8,29.9,8l12.2,17.6h-66.6l-15.6-84.1h3.4Z"/>
  <line class="st0" x1="80" y1="390" x2="368" y2="390"/>
</svg>