<?xml version="1.0" encoding="UTF-8"?>
<svg id="Layer_1" xmlns="http://www.w3.org/2000/svg" version="1.1" viewBox="0 0 450.2 450.2">
  <!-- Generator: Adobe Illustrator 29.2.1, SVG Export Plug-In . SVG Version: 2.1.0 Build 116)  -->
  <defs>
    <style>
      .st0 {
        stroke: #916e4e;
        stroke-width: 2px;
      }

      .st0, .st1 {
        fill: none;
        stroke-miterlimit: 10;
      }

      .st2 {
        fill: #916e4e;
      }

      .st1 {
        stroke: #de9641;
      }

      .st3 {
        fill: #ece7e3;
      }
    </style>
  </defs>
  <rect class="st3" width="450.2" height="450.2" rx="108.8" ry="108.8"/>
  <rect class="st1" x="10.5" y="10.5" width="429.2" height="429.2" rx="108.8" ry="108.8"/>
  <path class="st2" d="M360,337.4c.9,8.2,3.7,14.5,8.5,19.1s10.2,6.8,16.3,6.8h5.4v4.1h-37.7v-29.9h7.5,0ZM363.4,367.4h-23.8l-22.8-251.7,11.9-41h3.1l31.6,292.7h0ZM339.9,344v23.4h-20.7v-3.7h5.1c3.6,0,6.7-1.8,9.3-5.5,2.6-3.7,3.9-7.7,3.9-12.1v-2.1h2.4ZM337.6,171.8l-100.6,203.8-19.4-80.8,111.1-220.2,8.8,97.2h0ZM250.2,339.9l-13.2,35.7h-3.4c0-6.8-1.1-13.7-3.2-20.5-2.1-6.8-5.5-15-10-24.6L119.4,119.3l2.7-44.7,128.1,265.3h0ZM143.5,344.8v1.2c0,4.4,1.2,8.4,3.7,12.1,2.5,3.7,5.7,5.5,9.5,5.5h5.1v3.7h-20.7v-23.4h2.4v.8h0ZM122.1,74.6l36.4,104.1-17,188.6h-54.7L119.1,74.6h3.1ZM97.3,367.4h-37.4v-4.1h5.4c5.9,0,11.2-2.3,16-6.8,4.8-4.5,7.7-10.9,8.8-19.1h7.1v29.9Z"/>
  <line class="st0" x1="80" y1="390" x2="368" y2="390"/>
</svg>