<?xml version="1.0" encoding="UTF-8"?>
<svg id="Layer_1" xmlns="http://www.w3.org/2000/svg" version="1.1" viewBox="0 0 450.2 450.2">
  <!-- Generator: Adobe Illustrator 29.2.1, SVG Export Plug-In . SVG Version: 2.1.0 Build 116)  -->
  <defs>
    <style>
      .st0 {
        stroke: #916e4e;
        stroke-width: 2px;
      }

      .st0, .st1 {
        fill: none;
        stroke-miterlimit: 10;
      }

      .st2 {
        fill: #916e4e;
      }

      .st1 {
        stroke: #de9641;
      }

      .st3 {
        fill: #ece7e3;
      }
    </style>
  </defs>
  <rect class="st3" width="450.2" height="450.2" rx="108.8" ry="108.8"/>
  <rect class="st1" x="10.5" y="10.5" width="429.2" height="429.2" rx="108.8" ry="108.8"/>
  <path class="st2" d="M323.5,342.8c3.6,9.3,8.2,15.9,13.8,19.9,5.5,4,10.9,6,16.1,6h3.1v4.1h-72.7v-4.1h3.1c2.7,0,5.4-1,8.1-3.1,2.7-2,4.6-5,5.8-8.8,1.1-3.8.8-8.5-1-13.9h23.8,0ZM229.7,77.5c0,3,.8,7.2,2.4,12.5,1.6,5.3,3.3,10.9,5.3,16.6,1.9,5.7,3.7,10.9,5.4,15.4s2.9,7.6,3.6,9.2l88,240.3h-24.8l-84.3-243.9,1.4-50h3.1-.1ZM290.8,275.1v17.2h-99.9v-17.2h99.9ZM247.3,156.6l-70.7,213.6h-61.2L226.6,77.5l20.7,79.1ZM186.9,361.8c3.4,4.5,7.4,6.8,11.9,6.8h3.1v4.1h-108.1v-4.1h2.7c5.2,0,10.5-2,16-6,5.4-4,10.1-10.6,13.9-19.9h59.5c-2.7,8.2-2.4,14.5,1,19.1h0Z"/>
  <line class="st0" x1="80" y1="390" x2="368" y2="390"/>
</svg>