<?xml version="1.0" encoding="UTF-8"?>
<svg id="Layer_1" data-name="Layer 1" xmlns="http://www.w3.org/2000/svg" viewBox="0 0 450.17 450.17">
  <rect x="0" y="0" width="450.17" height="450.17" rx="108.83" ry="108.83" fill="#ece7e3"/>
  <rect x="10.47" y="10.47" width="429.23" height="429.23" rx="108.83" ry="108.83" fill="none" stroke="#de9641" stroke-miterlimit="10"/>
  <path d="M359.98,337.42c.91,8.2,3.74,14.55,8.5,19.06s10.19,6.77,16.31,6.77h5.44v4.1h-37.72v-29.93h7.48ZM363.38,367.35h-23.79s-22.77-251.74-22.77-251.74l11.89-41h3.06s31.6,292.74,31.6,292.74ZM339.94,343.98v23.37h-20.73v-3.69h5.1c3.63,0,6.74-1.84,9.34-5.53,2.61-3.69,3.91-7.72,3.91-12.1v-1.23c0-.27,0-.54,0-.82h2.38ZM337.56,171.78l-100.58,203.77-19.37-80.77,111.11-220.17,8.83,97.17ZM250.23,339.88l-13.25,35.67h-3.4c0-6.84-1.07-13.67-3.23-20.5-2.15-6.83-5.49-15.03-10.02-24.6L119.41,119.3l2.72-44.69,128.1,265.27ZM143.53,344.8v1.23c0,4.38,1.25,8.41,3.74,12.1,2.5,3.69,5.67,5.53,9.51,5.53h5.1v3.69h-20.73v-23.37h2.38v.82ZM122.13,74.61l36.36,104.14-16.99,188.6h-54.71S119.07,74.61,119.07,74.61h3.06ZM97.32,367.35h-37.38v-4.1h5.44c5.89,0,11.21-2.26,15.97-6.77,4.76-4.51,7.7-10.87,8.83-19.06h7.14v29.93Z" fill="#916e4e"/>
</svg>