<svg width="326" height="194" viewBox="0 0 326 194" fill="none" xmlns="http://www.w3.org/2000/svg">
<path d="M39.3435 26.1556C38.5545 26.0235 37.8277 26.1858 37.1632 26.6423L36.9957 26.371C37.6999 25.556 38.6292 25.0323 39.7834 24.7996C40.4542 24.6686 41.0757 24.6509 41.6477 24.7467C42.2198 24.8424 42.7326 24.9891 43.1862 25.1867C43.6628 25.3679 44.1213 25.6576 44.5616 26.0557C46.0731 27.4443 46.6192 29.3912 46.1998 31.8963C45.8696 33.8689 44.9315 35.4152 43.3853 36.5353C41.7734 37.685 39.705 38.0485 37.1801 37.6258C34.675 37.2065 32.8509 36.1103 31.708 34.3373C30.5683 32.5445 30.2511 30.1391 30.7563 27.1211C31.4133 23.1958 33.0299 20.2015 35.6058 18.1385C36.8691 17.1333 38.3376 16.4767 40.0114 16.1688C41.6852 15.8609 43.4295 15.8589 45.2443 16.1627C45.5401 16.2122 45.8442 16.2732 46.1566 16.3458L46.2402 16.5727C43.6655 16.9326 41.6823 17.6348 40.2908 18.6794C38.8335 19.7535 37.7722 21.0663 37.1069 22.6178C36.4877 24.1364 35.9783 26.0891 35.5788 28.4759C35.1825 30.843 35.1089 32.676 35.3579 33.9749C35.6069 35.2738 36.333 36.024 37.5362 36.2254C38.3055 36.3542 38.9797 36.2034 39.5587 35.7731C40.5554 35.0274 41.2255 33.6289 41.5689 31.5774C42.0741 28.5594 41.5263 26.8049 39.9254 26.3138C39.7347 26.2414 39.5408 26.1886 39.3435 26.1556ZM54.9823 18.4315C57.0929 18.7848 58.6444 19.5109 59.6365 20.6098C60.6485 21.712 61.019 23.0718 60.7483 24.6893C60.6294 25.3994 60.3577 26.0535 59.9331 26.6517C59.5086 27.2498 59.0759 27.7147 58.635 28.0465C58.1942 28.3783 57.5725 28.8217 56.7698 29.3768C55.9705 29.9122 55.3717 30.3392 54.9737 30.6579C54.5986 30.9601 54.3289 31.1785 54.1644 31.3132C54.0196 31.4512 53.8534 31.6566 53.6658 31.9294C53.3235 32.3993 53.2935 33.0026 53.5757 33.7393L53.3093 33.8773C51.8863 32.9293 51.2887 31.7748 51.5165 30.4137C51.6651 29.5261 52.1145 28.78 52.8645 28.1756C53.5916 27.5875 54.1624 27.0849 54.577 26.6676C55.3601 25.8659 55.8491 24.8831 56.0439 23.7193C56.2387 22.5555 56.1243 21.6036 55.7007 20.8635C55.2803 20.1036 54.6559 19.6544 53.8275 19.5157C53.0187 19.3803 52.3397 19.439 51.7904 19.6918C50.6689 20.2138 49.9495 21.4825 49.6325 23.4978L49.3366 23.4483L48.8605 20.1139C49.4496 19.3811 50.2769 18.8605 51.3424 18.5522C52.4277 18.2472 53.641 18.207 54.9823 18.4315ZM54.1201 38.1193C54.021 38.7111 53.7297 39.1794 53.2462 39.5243C52.7626 39.8692 52.2249 39.9921 51.6331 39.8931C51.0414 39.794 50.5632 39.501 50.1986 39.0142C49.8537 38.5306 49.7225 38.0422 49.805 37.5491C49.8876 37.056 50.0555 36.6582 50.3089 36.3559C50.842 35.7151 51.5228 35.4641 52.3513 35.6028C52.9431 35.7018 53.4098 36.003 53.7513 36.5063C54.0962 36.9899 54.2192 37.5276 54.1201 38.1193Z" fill="#E4C9A9"/>
<path d="M283.472 38.2022C282.584 37.5348 281.915 36.705 281.467 35.7131C281.049 34.6978 280.911 33.5809 281.053 32.3625C281.42 29.2105 283.595 27.1419 287.576 26.1566C285.056 23.8222 283.961 21.238 284.292 18.4038C284.561 16.0995 285.585 14.3396 287.365 13.1243C289.171 11.9121 291.332 11.4528 293.848 11.7463C296.391 12.043 298.424 12.9111 299.947 14.3507C301.5 15.7669 302.159 17.4815 301.925 19.4945C301.81 20.4745 301.467 21.3472 300.894 22.1127C299.841 23.547 298.221 24.4319 296.034 24.7674C297.827 25.9699 298.926 26.7828 299.333 27.2062C299.767 27.6326 300.149 28.0396 300.48 28.4272C300.837 28.8179 301.101 29.1978 301.273 29.5668C301.445 29.9359 301.612 30.3447 301.774 30.7932C302.079 31.6341 302.163 32.6373 302.027 33.8028C301.73 36.3455 300.505 38.2162 298.352 39.4147C296.225 40.6163 293.652 41.041 290.632 40.6887C287.613 40.3364 285.226 39.5076 283.472 38.2022ZM294.427 23.694C295.744 22.5321 296.532 20.8387 296.792 18.6138C296.959 17.1835 296.761 16.0059 296.197 15.0811C295.611 14.1266 294.761 13.5845 293.649 13.4548C292.536 13.325 291.619 13.5938 290.897 14.2613C290.201 14.9318 289.785 15.8498 289.649 17.0153C289.513 18.1807 289.78 19.232 290.449 20.1692C291.142 21.136 292.468 22.3109 294.427 23.694ZM290.628 38.9968C292.165 39.1761 293.429 38.9209 294.423 38.2314C295.446 37.5184 296.03 36.5395 296.175 35.2946C296.32 34.0497 295.976 32.9759 295.141 32.0731C294.336 31.147 293.224 30.2118 291.804 29.2675C290.387 28.2968 289.419 27.62 288.9 27.2373C287.471 28.4398 286.639 30.0475 286.404 32.0606C286.169 34.0736 286.412 35.6725 287.133 36.8574C287.953 38.1075 289.119 38.8207 290.628 38.9968ZM313.933 14.0897C316.767 14.4203 318.882 15.2844 320.276 16.6821C321.696 18.0828 322.28 19.8691 322.026 22.0411C321.915 22.9946 321.597 23.8837 321.071 24.7083C320.545 25.5329 320 26.1808 319.435 26.6518C318.87 27.1228 318.071 27.7545 317.039 28.5469C316.01 29.3129 315.241 29.9212 314.732 30.3719C314.252 30.7992 313.908 31.108 313.698 31.2983C313.514 31.4916 313.306 31.7761 313.074 32.1518C312.65 32.8003 312.65 33.6057 313.074 34.5681L312.729 34.7694C310.771 33.6013 309.899 32.1035 310.112 30.2759C310.251 29.084 310.8 28.0607 311.759 27.206C312.688 26.3748 313.415 25.6676 313.939 25.0844C314.929 23.9649 315.515 22.6238 315.697 21.061C315.88 19.4983 315.664 18.2382 315.051 17.2807C314.441 16.2967 313.58 15.7398 312.467 15.61C311.381 15.4833 310.481 15.6065 309.766 15.9795C308.307 16.7489 307.433 18.4861 307.145 21.1908L306.747 21.1445L305.892 16.7357C306.628 15.7208 307.696 14.9728 309.094 14.4916C310.519 14.0135 312.132 13.8795 313.933 14.0897ZM314.09 40.3648C313.997 41.1594 313.64 41.8024 313.019 42.2937C312.398 42.785 311.69 42.9843 310.895 42.8916C310.101 42.7989 309.444 42.4405 308.927 41.8163C308.435 41.1951 308.228 40.5535 308.305 39.8913C308.383 39.2291 308.58 38.6884 308.897 38.269C309.565 37.3803 310.455 37.0009 311.567 37.1307C312.362 37.2234 313.003 37.5936 313.492 38.2412C313.983 38.8623 314.182 39.5702 314.09 40.3648Z" fill="#E4C9A9"/>
<path d="M294.214 161.785C296.007 160.674 298.31 160.38 301.122 160.902C303.108 161.272 304.62 162 305.659 163.088C306.701 164.157 307.083 165.438 306.806 166.932C306.649 167.778 306.3 168.506 305.759 169.118C305.238 169.733 304.638 170.171 303.959 170.431C303.299 170.695 302.622 170.783 301.926 170.694C303.121 171.16 304.102 171.902 304.869 172.919C305.716 174.053 305.991 175.477 305.693 177.192C305.477 178.352 305.001 179.382 304.264 180.283C302.898 181.941 300.872 182.938 298.185 183.272C297.061 183.409 295.9 183.366 294.7 183.144C293.265 182.877 291.922 182.383 290.673 181.663L290.787 181.379C290.885 181.397 290.983 181.415 291.082 181.434C292.556 181.708 294.004 181.692 295.423 181.386C296.843 181.08 298.058 180.452 299.069 179.501C300.1 178.553 300.745 177.381 301.004 175.985C301.366 174.038 300.819 172.492 299.364 171.347C298.531 170.684 297.485 170.235 296.227 170.001L296.341 169.717C296.4 169.728 296.449 169.737 296.488 169.745C297.825 169.993 299.06 169.755 300.191 169.029C301.343 168.307 302.037 167.307 302.274 166.029C302.497 164.83 302.328 163.883 301.765 163.188C301.202 162.494 300.469 162.063 299.564 161.895C297.126 161.441 295.622 162.749 295.052 165.816C295.026 165.954 294.999 166.101 294.97 166.259L294.675 166.204L294.214 161.785ZM316.442 160.637C318.546 161.028 320.085 161.782 321.057 162.898C322.049 164.018 322.395 165.385 322.096 166.997C321.964 167.705 321.681 168.354 321.245 168.945C320.81 169.535 320.369 169.992 319.923 170.316C319.476 170.64 318.846 171.072 318.034 171.613C317.225 172.134 316.619 172.55 316.215 172.861C315.835 173.157 315.561 173.371 315.394 173.502C315.247 173.638 315.077 173.84 314.885 174.109C314.534 174.573 314.493 175.176 314.762 175.917L314.493 176.051C313.088 175.077 312.511 173.912 312.763 172.556C312.927 171.671 313.39 170.933 314.151 170.342C314.888 169.767 315.468 169.275 315.89 168.865C316.687 168.077 317.194 167.103 317.409 165.943C317.625 164.783 317.527 163.829 317.117 163.082C316.71 162.314 316.094 161.854 315.268 161.701C314.462 161.551 313.782 161.597 313.229 161.84C312.098 162.342 311.356 163.598 311.003 165.607L310.708 165.552L310.292 162.21C310.894 161.488 311.73 160.982 312.801 160.693C313.891 160.407 315.105 160.389 316.442 160.637ZM315.228 180.306C315.119 180.896 314.819 181.359 314.329 181.696C313.84 182.032 313.3 182.145 312.71 182.035C312.12 181.926 311.647 181.624 311.291 181.131C310.955 180.641 310.833 180.151 310.924 179.659C311.015 179.168 311.19 178.773 311.449 178.475C311.994 177.844 312.679 177.605 313.505 177.759C314.095 177.868 314.556 178.178 314.888 178.687C315.225 179.177 315.338 179.717 315.228 180.306Z" fill="#E4C9A9"/>
<path d="M17.7741 161.812C19.9386 161.055 21.9603 160.898 23.8393 161.342C26.7753 161.981 28.7764 163.823 29.8426 166.869C30.4329 168.555 30.6048 170.176 30.3582 171.732C30.128 173.253 29.6505 174.593 28.9257 175.751C26.989 178.774 24.2211 180.915 20.622 182.175C18.7595 182.827 17.0851 183.088 15.5988 182.959L15.5422 182.555C15.6177 182.528 15.8316 182.453 16.184 182.33C16.5363 182.207 17.1095 181.907 17.9036 181.431C18.6977 180.956 19.5314 180.311 20.4047 179.496C21.312 178.698 22.096 177.831 22.7567 176.893C23.4173 175.955 23.886 174.873 24.1628 173.646C24.4711 172.267 24.3961 170.923 23.9379 169.614C23.4798 168.305 22.6516 167.352 21.4535 166.754C20.1447 166.082 18.6723 166.033 17.0363 166.605C15.4254 167.169 13.8574 168.057 12.3322 169.269L11.9264 169.199L10.4909 155.293L19.9537 151.09C21.3129 150.614 22.0994 149.633 22.3132 148.145L22.6907 148.013L23.4255 154.833L13.1698 159.313L13.5552 163.925C15.0086 162.992 16.4149 162.288 17.7741 161.812ZM31.9416 141.426C34.6347 140.484 36.9138 140.336 38.7789 140.982C40.6691 141.62 41.9755 142.971 42.698 145.035C43.0152 145.941 43.1178 146.88 43.0059 147.852C42.8939 148.823 42.687 149.644 42.385 150.315C42.083 150.986 41.6413 151.903 41.0599 153.067C40.4698 154.206 40.0445 155.09 39.784 155.718C39.5399 156.312 39.365 156.74 39.2593 157.003C39.1788 157.258 39.1165 157.604 39.0725 158.044C38.9744 158.812 39.3268 159.537 40.1297 160.216L39.907 160.548C37.6354 160.355 36.1957 159.39 35.5877 157.653C35.1912 156.52 35.2371 155.36 35.7253 154.172C36.1972 153.018 36.5413 152.064 36.7577 151.31C37.1578 149.87 37.098 148.408 36.5781 146.923C36.0583 145.438 35.3132 144.399 34.3429 143.807C33.3638 143.189 32.3456 143.065 31.2885 143.435C30.2566 143.796 29.5009 144.301 29.0215 144.949C28.0462 146.279 28.0206 148.224 28.9444 150.782L28.5669 150.914L25.8691 147.324C26.0868 146.089 26.7191 144.95 27.7661 143.905C28.8383 142.852 30.2301 142.026 31.9416 141.426ZM43.5789 164.984C43.8432 165.739 43.8036 166.474 43.4601 167.187C43.1166 167.901 42.5673 168.39 41.8122 168.654C41.0571 168.919 40.3102 168.883 39.5715 168.549C38.8579 168.205 38.391 167.719 38.1707 167.09C37.9504 166.46 37.8912 165.888 37.9931 165.372C38.2045 164.281 38.8387 163.55 39.8958 163.18C40.6509 162.916 41.3896 162.968 42.112 163.336C42.8256 163.68 43.3146 164.229 43.5789 164.984Z" fill="#E4C9A9"/>
</svg>
