<?xml version="1.0" encoding="UTF-8"?>
<svg id="Layer_1" data-name="Layer 1" xmlns="http://www.w3.org/2000/svg" viewBox="0 0 786.89 964.54">
  <path d="M83.1,211.68v714.5h245.98v-204.99s21.02-29.7,73.03-29.7,73.04,29.7,73.04,29.7v204.99h246.95V211.68H83.1ZM147.21,438.46s11.46-21.57,39.82-21.57c.55,0,1.1.01,1.64.03h-1.64v32.47h-39.82v-10.93ZM147.21,454.63h39.82v42.19h-39.82v-42.19ZM147.21,502.05h39.82v33.16h-39.82v-33.16ZM147.21,705.31s11.46-21.57,39.82-21.57c.89,0,1.76.02,2.61.06h-2.61v32.47h-39.82v-10.96ZM147.21,721.51h39.82v42.19h-39.82v-42.19ZM147.21,768.93h39.82v33.17h-39.82v-33.17ZM147.21,854.12v-46.79h39.82v46.79h-39.82ZM226.85,854.12h-34.59v-46.79h34.59v46.79ZM226.85,802.1h-34.59v-33.17h34.59v33.17ZM226.85,763.7h-34.59v-42.19h34.59v42.19ZM226.85,716.27h-34.59v-32.28c24.54,2.42,34.59,21.32,34.59,21.32v10.96ZM226.85,587.27h-79.64v-46.82h39.82v46.79h5.23v-46.79h34.59v46.82ZM226.85,535.21h-34.59v-33.16h34.59v33.16ZM226.85,496.82h-34.59v-42.19h34.59v42.19ZM226.85,449.39h-34.59v-32.25c24.54,2.42,34.59,21.32,34.59,21.32v10.93ZM226.85,340.74h-79.64v-71.26s11.46-10.33,39.82-10.33,39.82,10.33,39.82,10.33v71.26ZM437.6,304.02h-25.61s.01-.02-.01-.02l20.75-20.75c3.09,6.02,4.87,13.14,4.87,20.77ZM411.99,309.26h25.32c-.77,7.13-3.12,13.66-6.6,19.05l-18.81-18.82c.04-.07.07-.15.09-.23ZM408.02,264.87c8.78.86,16.56,6.02,21.94,13.75l-21.58,21.58c-.12-.06-.24-.11-.36-.15v-35.18ZM408.02,313.23c.06-.01.11-.03.16-.06l19.36,19.37c-5.17,5.99-11.98,9.9-19.52,10.64v-29.95ZM402.76,313.22s0,.02.02.01v29.95c-7.5-.73-14.27-4.61-19.44-10.54l19.42-19.42ZM380.17,328.42c-3.52-5.41-5.9-11.98-6.68-19.16h25.32c.04.12.09.24.15.36l-18.79,18.8ZM402.78,264.87v35.18c-.08.02-.16.05-.23.09l-21.63-21.63c5.38-7.67,13.13-12.78,21.86-13.64ZM378.13,283.12l20.9,20.9-.16-.16c-.03.05-.05.1-.06.16h-25.61c0-7.68,1.81-14.85,4.93-20.9ZM355.59,420.2s12.75-21.32,44.01-23.2v46.43h-44.01v-23.23ZM355.59,448.67h44.01v42.19h-44.01v-42.19ZM355.59,496.09h44.01v33.17h-44.01v-33.17ZM355.59,581.28v-46.79h44.01v46.79h-44.01ZM452.54,581.28h-46.57v-46.79h46.57v46.79ZM452.54,529.26h-46.57v-33.17h46.57v33.17ZM452.54,490.86h-46.57v-42.19h46.57v42.19ZM452.54,443.43h-46.57v-46.54c33.13.83,46.57,23.31,46.57,23.31v23.23ZM582.96,438.46s11.47-21.57,39.82-21.57c.55,0,1.1.01,1.64.03h-1.64v32.47h-39.82v-10.93ZM582.96,454.63h39.82v42.19h-39.82v-42.19ZM582.96,502.05h39.82v33.16h-39.82v-33.16ZM582.96,705.31s11.47-21.57,39.82-21.57c.89,0,1.76.02,2.61.06h-2.61v32.47h-39.82v-10.96ZM582.96,721.51h39.82v42.19h-39.82v-42.19ZM582.96,768.93h39.82v33.17h-39.82v-33.17ZM582.96,854.12v-46.79h39.82v46.79h-39.82ZM662.6,854.12h-34.59v-46.79h34.59v46.79ZM662.6,802.1h-34.59v-33.17h34.59v33.17ZM662.6,763.7h-34.59v-42.19h34.59v42.19ZM662.6,716.27h-34.59v-32.28c24.55,2.42,34.59,21.32,34.59,21.32v10.96ZM662.6,587.27h-79.64v-46.82h39.82v46.79h5.23v-46.79h34.59v46.82ZM662.6,535.21h-34.59v-33.16h34.59v33.16ZM662.6,496.82h-34.59v-42.19h34.59v42.19ZM662.6,449.39h-34.59v-32.25c24.55,2.42,34.59,21.32,34.59,21.32v10.93ZM662.6,340.74h-79.64v-71.26s11.47-10.33,39.82-10.33,39.82,10.33,39.82,10.33v71.26Z" fill="#593721"/>
  <path d="M410.68,37.78L75.01,191.46v20.22h655.17v-23.13L410.68,37.78ZM452.31,139.29h-39.87c0-.72-.1-1.41-.26-2.07l30.01-30.01c6.37,8.36,10.16,18.8,10.16,30.13,0,.65-.02,1.3-.05,1.95ZM353.35,144.52h43.57c.08.11.16.21.24.31l-28.7,28.7c-7.98-7.52-13.47-17.64-15.11-29.01ZM400.93,131.13c-1.06.37-2.02.94-2.84,1.66l-30.67-30.67c8.64-8.63,20.44-14.09,33.51-14.52v43.52ZM400.93,148.47v38.59c-10.69-.35-20.52-4.06-28.47-10.12l28.47-28.47ZM406.16,148.28l27.74,27.74c-7.69,6.23-17.26,10.2-27.74,10.95v-38.68ZM410.28,144.99c.13-.15.26-.31.39-.47h41.17c-1.57,10.86-6.64,20.58-14.04,27.99l-27.52-27.52ZM438.79,103.2l-29.45,29.45c-.92-.77-2-1.34-3.18-1.68v-43.27c12.83.91,24.32,6.68,32.63,15.49ZM363.92,106.03l31.43,31.43c-.13.59-.2,1.2-.2,1.83h-42.27c-.02-.65-.05-1.3-.05-1.95,0-11.87,4.16-22.76,11.09-31.31Z" fill="#593721"/>
</svg>