<?xml version="1.0" encoding="UTF-8"?>
<svg id="Layer_1" data-name="Layer 1" xmlns="http://www.w3.org/2000/svg" viewBox="0 0 450.17 450.17">
  <path d="M450.18,225.09c0,62.15-25.2,118.43-65.93,159.16s-97.01,65.92-159.16,65.92C100.78,450.17,0,349.4,0,225.09,0,162.94,25.2,106.66,65.93,65.93S162.94,0,225.09,0s118.43,25.2,159.16,65.93,65.93,97.01,65.93,159.16Z" fill="#ece7e3"/>
  <path d="M439.7,225.09c0,59.27-24.02,112.92-62.86,151.75-38.83,38.84-92.48,62.86-151.75,62.86-118.53,0-214.61-96.08-214.61-214.61,0-59.27,24.02-112.92,62.86-151.75C112.17,34.5,165.82,10.48,225.09,10.48s112.92,24.02,151.75,62.86c38.84,38.83,62.86,92.48,62.86,151.75Z" fill="none" stroke="#de9641" stroke-miterlimit="10"/>
  <path d="M299.8,245.15l8.91-58.11h-55.75v-37.71c0-15.9,7.79-31.39,32.76-31.39h25.35v-49.47s-23-3.93-45-3.93c-45.92,0-75.93,27.83-75.93,78.21v44.29h-51.04v58.11h51.04v140.47h62.82v-140.47h46.84Z" fill="#916e4e"/>
</svg>