<?xml version="1.0" encoding="UTF-8"?>
<svg id="Layer_1" data-name="Layer 1" xmlns="http://www.w3.org/2000/svg" viewBox="0 0 450.17 450.17">
  <path d="M450.18,225.09c0,62.15-25.2,118.43-65.93,159.16s-97.01,65.92-159.16,65.92C100.78,450.17,0,349.4,0,225.09,0,162.94,25.2,106.66,65.93,65.93S162.94,0,225.09,0s118.43,25.2,159.16,65.93,65.93,97.01,65.93,159.16Z" fill="#ece7e3"/>
  <path d="M439.7,225.09c0,59.27-24.02,112.92-62.86,151.75-38.83,38.84-92.48,62.86-151.75,62.86-118.53,0-214.61-96.08-214.61-214.61,0-59.27,24.02-112.92,62.86-151.75C112.17,34.5,165.82,10.48,225.09,10.48s112.92,24.02,151.75,62.86c38.84,38.83,62.86,92.48,62.86,151.75Z" fill="none" stroke="#de9641" stroke-miterlimit="10"/>
  <path d="M137.02,236.09c-6.08,0-11.02,4.94-11.02,11.02s4.94,11.02,11.02,11.02,11-4.92,11-11.02-4.94-11.02-11-11.02ZM137.02,236.09c-6.08,0-11.02,4.94-11.02,11.02s4.94,11.02,11.02,11.02,11-4.92,11-11.02-4.94-11.02-11-11.02ZM137.02,236.09c-6.08,0-11.02,4.94-11.02,11.02s4.94,11.02,11.02,11.02,11-4.92,11-11.02-4.94-11.02-11-11.02ZM137.02,236.09c-6.08,0-11.02,4.94-11.02,11.02s4.94,11.02,11.02,11.02,11-4.92,11-11.02-4.94-11.02-11-11.02ZM137.02,214.06c-18.26,0-33.04,14.82-33.04,33.06s14.78,33.03,33.04,33.03,33.03-14.78,33.03-33.03-14.78-33.06-33.03-33.06ZM137.02,269.15c-12.16,0-22.04-9.86-22.04-22.02s9.88-22.04,22.04-22.04,22.02,9.88,22.02,22.04-9.88,22.02-22.02,22.02ZM137.02,236.09c-6.08,0-11.02,4.94-11.02,11.02s4.94,11.02,11.02,11.02,11-4.92,11-11.02-4.94-11.02-11-11.02ZM137.02,236.09c-6.08,0-11.02,4.94-11.02,11.02s4.94,11.02,11.02,11.02,11-4.92,11-11.02-4.94-11.02-11-11.02ZM137.02,236.09c-6.08,0-11.02,4.94-11.02,11.02s4.94,11.02,11.02,11.02,11-4.92,11-11.02-4.94-11.02-11-11.02ZM137.02,236.09c-6.08,0-11.02,4.94-11.02,11.02s4.94,11.02,11.02,11.02,11-4.92,11-11.02-4.94-11.02-11-11.02ZM137.02,236.09c-6.08,0-11.02,4.94-11.02,11.02s4.94,11.02,11.02,11.02,11-4.92,11-11.02-4.94-11.02-11-11.02ZM137.02,214.06c-18.26,0-33.04,14.82-33.04,33.06s14.78,33.03,33.04,33.03,33.03-14.78,33.03-33.03-14.78-33.06-33.03-33.06ZM137.02,269.15c-12.16,0-22.04-9.86-22.04-22.02s9.88-22.04,22.04-22.04,22.02,9.88,22.02,22.04-9.88,22.02-22.02,22.02ZM137.02,236.09c-6.08,0-11.02,4.94-11.02,11.02s4.94,11.02,11.02,11.02,11-4.92,11-11.02-4.94-11.02-11-11.02ZM137.02,236.09c-6.08,0-11.02,4.94-11.02,11.02s4.94,11.02,11.02,11.02,11-4.92,11-11.02-4.94-11.02-11-11.02ZM137.02,236.09c-6.08,0-11.02,4.94-11.02,11.02s4.94,11.02,11.02,11.02,11-4.92,11-11.02-4.94-11.02-11-11.02ZM137.02,236.09c-6.08,0-11.02,4.94-11.02,11.02s4.94,11.02,11.02,11.02,11-4.92,11-11.02-4.94-11.02-11-11.02ZM137.02,236.09c-6.08,0-11.02,4.94-11.02,11.02s4.94,11.02,11.02,11.02,11-4.92,11-11.02-4.94-11.02-11-11.02ZM137.02,214.06c-18.26,0-33.04,14.82-33.04,33.06s14.78,33.03,33.04,33.03,33.03-14.78,33.03-33.03-14.78-33.06-33.03-33.06ZM137.02,269.15c-12.16,0-22.04-9.86-22.04-22.02s9.88-22.04,22.04-22.04,22.02,9.88,22.02,22.04-9.88,22.02-22.02,22.02ZM137.02,236.09c-6.08,0-11.02,4.94-11.02,11.02s4.94,11.02,11.02,11.02,11-4.92,11-11.02-4.94-11.02-11-11.02ZM313.17,236.09c-6.08,0-11,4.94-11,11.02s4.92,11.02,11,11.02,11-4.92,11-11.02c.02-6.08-4.92-11.02-11-11.02ZM313.17,236.09c-6.08,0-11,4.94-11,11.02s4.92,11.02,11,11.02,11-4.92,11-11.02c.02-6.08-4.92-11.02-11-11.02ZM313.17,214.06c-18.24,0-33.04,14.82-33.04,33.06s14.8,33.03,33.04,33.03,33.04-14.78,33.04-33.03-14.8-33.06-33.04-33.06ZM313.17,269.15c-12.14,0-22.02-9.86-22.02-22.02s9.88-22.04,22.02-22.04,22.04,9.88,22.04,22.04-9.9,22.02-22.04,22.02ZM313.17,236.09c-6.08,0-11,4.94-11,11.02s4.92,11.02,11,11.02,11-4.92,11-11.02c.02-6.08-4.92-11.02-11-11.02ZM313.17,214.06c-18.24,0-33.04,14.82-33.04,33.06s14.8,33.03,33.04,33.03,33.04-14.78,33.04-33.03-14.8-33.06-33.04-33.06ZM313.17,269.15c-12.14,0-22.02-9.86-22.02-22.02s9.88-22.04,22.02-22.04,22.04,9.88,22.04,22.04-9.9,22.02-22.04,22.02ZM313.17,236.09c-6.08,0-11,4.94-11,11.02s4.92,11.02,11,11.02,11-4.92,11-11.02c.02-6.08-4.92-11.02-11-11.02ZM137.02,214.06c-18.26,0-33.04,14.82-33.04,33.06s14.78,33.03,33.04,33.03,33.03-14.78,33.03-33.03-14.78-33.06-33.03-33.06ZM137.02,269.15c-12.16,0-22.04-9.86-22.04-22.02s9.88-22.04,22.04-22.04,22.02,9.88,22.02,22.04-9.88,22.02-22.02,22.02ZM137.02,236.09c-6.08,0-11.02,4.94-11.02,11.02s4.94,11.02,11.02,11.02,11-4.92,11-11.02-4.94-11.02-11-11.02ZM368.22,192.08c22.02-5.5,22.02-22.04,22.02-22.04h-55.03c-33.03-33.03-66.09-44.05-110.11-44.05s-77.09,11.02-110.12,44.05h-55.05s.02,16.54,22.04,22.04c-4.07,5.59-8.52,12.89-12.37,20.78-5.45,11.21-9.67,23.66-9.67,34.27,0,45.41,31.66,77.05,77.09,77.05,25.75,0,50.98-14.48,66.03-33.03l22.04,33.03,22.02-33.03c15.07,18.55,40.28,33.03,66.05,33.03,45.41,0,77.07-31.65,77.07-77.05,0-10.12-3.82-21.89-8.89-32.69-4-8.5-8.79-16.4-13.13-22.36ZM137.02,302.16c-30.42,0-55.05-24.63-55.05-55.03,0-16.28,7.1-30.86,18.33-40.95,9.74-8.74,22.58-14.1,36.72-14.1,8.58,0,16.69,2.03,23.93,5.54,18.39,8.91,31.1,27.71,31.1,49.51,0,30.4-24.65,55.03-55.03,55.03ZM225.09,280.15c0-31.68-14.6-63.34-35.39-84.55-15.33-15.62-34-25.57-52.68-25.57,0,0,33.03-33.03,88.07-33.03s88.07,33.03,88.07,33.03c-18.79,0-37.56,10.05-52.92,25.82-20.66,21.19-35.15,52.75-35.15,84.29ZM313.17,302.16c-30.4,0-55.03-24.63-55.03-55.03,0-21.44,12.26-39.97,30.15-49.05,7.48-3.8,15.91-6,24.88-6,14.85,0,28.31,5.91,38.22,15.47,10.36,10.03,16.83,24.03,16.83,39.58,0,30.4-24.65,55.03-55.05,55.03ZM313.17,214.06c-18.24,0-33.04,14.82-33.04,33.06s14.8,33.03,33.04,33.03,33.04-14.78,33.04-33.03-14.8-33.06-33.04-33.06ZM313.17,269.15c-12.14,0-22.02-9.86-22.02-22.02s9.88-22.04,22.02-22.04,22.04,9.88,22.04,22.04-9.9,22.02-22.04,22.02ZM313.17,236.09c-6.08,0-11,4.94-11,11.02s4.92,11.02,11,11.02,11-4.92,11-11.02c.02-6.08-4.92-11.02-11-11.02ZM137.02,214.06c-18.26,0-33.04,14.82-33.04,33.06s14.78,33.03,33.04,33.03,33.03-14.78,33.03-33.03-14.78-33.06-33.03-33.06ZM137.02,269.15c-12.16,0-22.04-9.86-22.04-22.02s9.88-22.04,22.04-22.04,22.02,9.88,22.02,22.04-9.88,22.02-22.02,22.02ZM137.02,236.09c-6.08,0-11.02,4.94-11.02,11.02s4.94,11.02,11.02,11.02,11-4.92,11-11.02-4.94-11.02-11-11.02ZM137.02,236.09c-6.08,0-11.02,4.94-11.02,11.02s4.94,11.02,11.02,11.02,11-4.92,11-11.02-4.94-11.02-11-11.02ZM137.02,236.09c-6.08,0-11.02,4.94-11.02,11.02s4.94,11.02,11.02,11.02,11-4.92,11-11.02-4.94-11.02-11-11.02ZM137.02,214.06c-18.26,0-33.04,14.82-33.04,33.06s14.78,33.03,33.04,33.03,33.03-14.78,33.03-33.03-14.78-33.06-33.03-33.06ZM137.02,269.15c-12.16,0-22.04-9.86-22.04-22.02s9.88-22.04,22.04-22.04,22.02,9.88,22.02,22.04-9.88,22.02-22.02,22.02ZM137.02,236.09c-6.08,0-11.02,4.94-11.02,11.02s4.94,11.02,11.02,11.02,11-4.92,11-11.02-4.94-11.02-11-11.02ZM313.17,236.09c-6.08,0-11,4.94-11,11.02s4.92,11.02,11,11.02,11-4.92,11-11.02c.02-6.08-4.92-11.02-11-11.02ZM313.17,236.09c-6.08,0-11,4.94-11,11.02s4.92,11.02,11,11.02,11-4.92,11-11.02c.02-6.08-4.92-11.02-11-11.02ZM313.17,214.06c-18.24,0-33.04,14.82-33.04,33.06s14.8,33.03,33.04,33.03,33.04-14.78,33.04-33.03-14.8-33.06-33.04-33.06ZM313.17,269.15c-12.14,0-22.02-9.86-22.02-22.02s9.88-22.04,22.02-22.04,22.04,9.88,22.04,22.04-9.9,22.02-22.04,22.02ZM313.17,236.09c-6.08,0-11,4.94-11,11.02s4.92,11.02,11,11.02,11-4.92,11-11.02c.02-6.08-4.92-11.02-11-11.02ZM313.17,236.09c-6.08,0-11,4.94-11,11.02s4.92,11.02,11,11.02,11-4.92,11-11.02c.02-6.08-4.92-11.02-11-11.02ZM313.17,236.09c-6.08,0-11,4.94-11,11.02s4.92,11.02,11,11.02,11-4.92,11-11.02c.02-6.08-4.92-11.02-11-11.02ZM313.17,214.06c-18.24,0-33.04,14.82-33.04,33.06s14.8,33.03,33.04,33.03,33.04-14.78,33.04-33.03-14.8-33.06-33.04-33.06ZM313.17,269.15c-12.14,0-22.02-9.86-22.02-22.02s9.88-22.04,22.02-22.04,22.04,9.88,22.04,22.04-9.9,22.02-22.04,22.02ZM313.17,236.09c-6.08,0-11,4.94-11,11.02s4.92,11.02,11,11.02,11-4.92,11-11.02c.02-6.08-4.92-11.02-11-11.02ZM137.02,236.09c-6.08,0-11.02,4.94-11.02,11.02s4.94,11.02,11.02,11.02,11-4.92,11-11.02-4.94-11.02-11-11.02ZM137.02,236.09c-6.08,0-11.02,4.94-11.02,11.02s4.94,11.02,11.02,11.02,11-4.92,11-11.02-4.94-11.02-11-11.02ZM137.02,214.06c-18.26,0-33.04,14.82-33.04,33.06s14.78,33.03,33.04,33.03,33.03-14.78,33.03-33.03-14.78-33.06-33.03-33.06ZM137.02,269.15c-12.16,0-22.04-9.86-22.04-22.02s9.88-22.04,22.04-22.04,22.02,9.88,22.02,22.04-9.88,22.02-22.02,22.02ZM137.02,236.09c-6.08,0-11.02,4.94-11.02,11.02s4.94,11.02,11.02,11.02,11-4.92,11-11.02-4.94-11.02-11-11.02ZM137.02,236.09c-6.08,0-11.02,4.94-11.02,11.02s4.94,11.02,11.02,11.02,11-4.92,11-11.02-4.94-11.02-11-11.02ZM137.02,236.09c-6.08,0-11.02,4.94-11.02,11.02s4.94,11.02,11.02,11.02,11-4.92,11-11.02-4.94-11.02-11-11.02ZM137.02,236.09c-6.08,0-11.02,4.94-11.02,11.02s4.94,11.02,11.02,11.02,11-4.92,11-11.02-4.94-11.02-11-11.02ZM137.02,236.09c-6.08,0-11.02,4.94-11.02,11.02s4.94,11.02,11.02,11.02,11-4.92,11-11.02-4.94-11.02-11-11.02Z" fill="#916e4e"/>
</svg>