<?xml version="1.0" encoding="UTF-8"?>
<svg id="Layer_1" data-name="Layer 1" xmlns="http://www.w3.org/2000/svg" viewBox="0 0 450.17 450.17">
  <path d="M450.18,225.09c0,62.15-25.2,118.43-65.93,159.16s-97.01,65.92-159.16,65.92C100.78,450.17,0,349.4,0,225.09,0,162.94,25.2,106.66,65.93,65.93S162.94,0,225.09,0s118.43,25.2,159.16,65.93,65.93,97.01,65.93,159.16Z" fill="#ece7e3"/>
  <path d="M439.7,225.09c0,59.27-24.02,112.92-62.86,151.75-38.83,38.84-92.48,62.86-151.75,62.86-118.53,0-214.61-96.08-214.61-214.61,0-59.27,24.02-112.92,62.86-151.75C112.17,34.5,165.82,10.48,225.09,10.48s112.92,24.02,151.75,62.86c38.84,38.83,62.86,92.48,62.86,151.75Z" fill="none" stroke="#de9641" stroke-miterlimit="10"/>
  <path d="M380.44,184.52c0-37.66-30.53-68.18-68.18-68.18h-174.35c-37.66,0-68.18,30.53-68.18,68.18v81.13c0,37.66,30.53,68.18,68.18,68.18h174.35c37.66,0,68.18-30.53,68.18-68.18v-81.13ZM277.91,231.17l-78.18,38.68c-3.06,1.66-13.48-.56-13.48-4.05v-79.4c0-3.53,10.5-5.75,13.57-4l74.84,40.72c3.14,1.79,6.43,6.33,3.26,8.05Z" fill="#916e4e"/>
</svg>