<?xml version="1.0" encoding="UTF-8"?>
<svg id="Layer_1" data-name="Layer 1" xmlns="http://www.w3.org/2000/svg" viewBox="0 0 450.17 450.17">
  <path d="M450.18,225.09c0,62.15-25.2,118.43-65.93,159.16s-97.01,65.92-159.16,65.92C100.78,450.17,0,349.4,0,225.09,0,162.94,25.2,106.66,65.93,65.93S162.94,0,225.09,0s118.43,25.2,159.16,65.93,65.93,97.01,65.93,159.16Z" fill="#ece7e3"/>
  <path d="M439.7,225.09c0,59.27-24.02,112.92-62.86,151.75-38.83,38.84-92.48,62.86-151.75,62.86-118.53,0-214.61-96.08-214.61-214.61,0-59.27,24.02-112.92,62.86-151.75C112.17,34.5,165.82,10.48,225.09,10.48s112.92,24.02,151.75,62.86c38.84,38.83,62.86,92.48,62.86,151.75Z" fill="none" stroke="#de9641" stroke-miterlimit="10"/>
  <path d="M207.59,267.12c-.23.79-.45,1.46-.62,2.13-10.14,39.72-11.26,48.54-21.68,66.99-4.97,8.76-10.57,17.07-16.75,25.02-.7.9-1.35,2.06-2.75,1.78-1.53-.33-1.65-1.7-1.81-2.92-1.67-12.07-2.59-24.17-2.19-36.36.53-15.87,2.49-21.32,22.95-107.37.3-1.31-.04-2.4-.48-3.59-4.9-13.21-5.86-26.62-1.59-40.21,9.26-29.35,42.53-31.6,48.35-7.38,3.58,14.98-5.9,34.58-13.18,63.55-6.03,23.91,22.11,40.9,46.16,23.45,22.18-16.09,30.79-54.65,29.15-81.99-3.22-54.5-62.98-66.28-100.9-48.73-43.46,20.09-53.34,73.97-33.72,98.59,2.49,3.13,4.41,5.05,3.58,8.22-1.26,4.93-2.38,9.9-3.74,14.8-1.01,3.65-4.07,4.98-7.76,3.48-7.23-2.92-13.26-7.54-18.15-13.6-16.67-20.64-21.44-61.45.6-96.01,24.41-38.29,69.82-53.77,111.28-49.07,49.51,5.63,80.82,39.46,86.68,77.85,2.67,17.49.75,60.6-23.8,91.07-28.24,35.02-74.01,37.34-95.13,15.85-1.63-1.65-2.93-3.58-4.52-5.55Z" fill="#916e4e" fill-rule="evenodd"/>
</svg>