<?xml version="1.0" encoding="UTF-8"?>
<svg id="Layer_1" data-name="Layer 1" xmlns="http://www.w3.org/2000/svg" viewBox="0 0 450.17 450.17">
  <path d="M450.18,225.09c0,62.15-25.2,118.43-65.93,159.16s-97.01,65.92-159.16,65.92C100.78,450.17,0,349.4,0,225.09,0,162.94,25.2,106.66,65.93,65.93S162.94,0,225.09,0s118.43,25.2,159.16,65.93,65.93,97.01,65.93,159.16Z" fill="#ece7e3"/>
  <path d="M439.7,225.09c0,59.27-24.02,112.92-62.86,151.75-38.83,38.84-92.48,62.86-151.75,62.86-118.53,0-214.61-96.08-214.61-214.61,0-59.27,24.02-112.92,62.86-151.75C112.17,34.5,165.82,10.48,225.09,10.48s112.92,24.02,151.75,62.86c38.84,38.83,62.86,92.48,62.86,151.75Z" fill="none" stroke="#de9641" stroke-miterlimit="10"/>
  <g>
    <path d="M302.61,130.95c-9.48,0-17.17,7.69-17.17,17.17s7.69,17.17,17.17,17.17,17.17-7.69,17.17-17.17-7.69-17.17-17.17-17.17Z" fill="#916e4e"/>
    <path d="M226.29,152.97c-39.77,0-72.12,32.35-72.12,72.12s32.35,72.12,72.12,72.12,72.12-32.35,72.12-72.12-32.35-72.12-72.12-72.12ZM226.29,271.28c-25.47,0-46.2-20.72-46.2-46.2s20.72-46.2,46.2-46.2,46.19,20.72,46.19,46.2-20.72,46.2-46.19,46.2Z" fill="#916e4e"/>
    <path d="M283.54,371.51h-116.92c-48.5,0-87.96-39.46-87.96-87.96v-116.92c0-48.5,39.46-87.96,87.96-87.96h116.92c48.5,0,87.97,39.46,87.97,87.96v116.92c0,48.5-39.46,87.96-87.97,87.96ZM166.62,106.21c-33.31,0-60.41,27.1-60.41,60.41v116.92c0,33.31,27.1,60.41,60.41,60.41h116.92c33.31,0,60.42-27.1,60.42-60.41v-116.92c0-33.31-27.1-60.41-60.42-60.41h-116.92Z" fill="#916e4e"/>
  </g>
</svg>