<?xml version="1.0" encoding="UTF-8"?>
<svg id="Layer_1" data-name="Layer 1" xmlns="http://www.w3.org/2000/svg" viewBox="0 0 450.17 450.17">
  <path d="M450.18,225.09c0,62.15-25.2,118.43-65.93,159.16s-97.01,65.92-159.16,65.92C100.78,450.17,0,349.4,0,225.09,0,162.94,25.2,106.66,65.93,65.93S162.94,0,225.09,0s118.43,25.2,159.16,65.93,65.93,97.01,65.93,159.16Z" fill="#ece7e3"/>
  <path d="M439.7,225.09c0,59.27-24.02,112.92-62.86,151.75-38.83,38.84-92.48,62.86-151.75,62.86-118.53,0-214.61-96.08-214.61-214.61,0-59.27,24.02-112.92,62.86-151.75C112.17,34.5,165.82,10.48,225.09,10.48s112.92,24.02,151.75,62.86c38.84,38.83,62.86,92.48,62.86,151.75Z" fill="none" stroke="#de9641" stroke-miterlimit="10"/>
  <g>
    <path d="M233.52,290.52v-127.69c0-3.43,2.21-6.47,5.47-7.53,7.13-2.31,14.74-3.56,22.64-3.56,35.35,0,64.85,25,71.8,58.29,4.98-1.84,10.36-2.84,15.98-2.81,25.14.1,45.43,20.46,45.43,45.61,0,24.72-19.66,44.86-44.19,45.61h-109.22c-4.37,0-7.91-3.54-7.91-7.91Z" fill="#916e4e"/>
    <path d="M214.27,298.12c-3.35,0-6.07-2.72-6.07-6.07v-125.67c0-3.35,2.72-6.07,6.07-6.07s6.07,2.72,6.07,6.07v125.67c0,3.35-2.72,6.07-6.07,6.07Z" fill="#916e4e"/>
    <path d="M188.79,298.12c-3.35,0-6.07-2.72-6.07-6.07v-95.22c0-3.35,2.72-6.07,6.07-6.07s6.07,2.72,6.07,6.07v95.22c0,3.35-2.72,6.07-6.07,6.07Z" fill="#916e4e"/>
    <path d="M137.83,298.15c-3.35,0-6.07-2.72-6.07-6.07v-95.22c0-3.35,2.72-6.07,6.07-6.07s6.07,2.72,6.07,6.07v95.22c0,3.35-2.72,6.07-6.07,6.07Z" fill="#916e4e"/>
    <path d="M112.35,298.15c-3.35,0-6.07-2.72-6.07-6.07v-54.7c0-3.35,2.72-6.07,6.07-6.07s6.07,2.72,6.07,6.07v54.7c0,3.35-2.72,6.07-6.07,6.07Z" fill="#916e4e"/>
    <path d="M86.88,298.15c-3.35,0-6.07-2.72-6.07-6.07v-71.47c0-3.35,2.72-6.07,6.07-6.07s6.07,2.72,6.07,6.07v71.47c0,3.35-2.72,6.07-6.07,6.07Z" fill="#916e4e"/>
    <path d="M61.4,285.76c-3.35,0-6.07-2.72-6.07-6.07v-34.08c0-3.35,2.72-6.07,6.07-6.07s6.07,2.72,6.07,6.07v34.08c0,3.35-2.72,6.07-6.07,6.07Z" fill="#916e4e"/>
    <path d="M163.31,298.15c-3.35,0-6.07-2.72-6.07-6.07v-107.62c0-3.35,2.72-6.07,6.07-6.07s6.07,2.72,6.07,6.07v107.62c0,3.35-2.72,6.07-6.07,6.07Z" fill="#916e4e"/>
  </g>
</svg>