<svg width="390" height="826" viewBox="0 0 390 826" fill="none" xmlns="http://www.w3.org/2000/svg">
<path d="M-44.2441 1C14.8645 84.7632 138.691 57.2133 177.64 121.489C214.862 182.914 60.8689 201.364 122.164 290.149C172.302 362.775 201.83 455.235 153.827 506.089C94.5069 568.932 91.7521 643.568 269.171 703.9C423.63 756.425 517.158 754.327 540.725 825.376" stroke="white" stroke-linecap="round" stroke-dasharray="30 30"/>
<g clip-path="url(#clip0_390_91)">
<path d="M48.1894 57.5693C77.5335 87.4167 67.1193 90.9018 77.0635 47.9066C50.4366 80.7999 47.3276 69.1261 85.6835 80.2731C56.3394 50.4257 66.7536 46.9406 56.8094 89.9358C83.4363 57.0425 86.5453 68.7163 48.1894 57.5693Z" fill="#F8BF7A"/>
<path d="M72.2006 88.6866C67.5296 65.8675 68.8888 66.6905 49.3024 74.821C69.6593 69.5851 68.9251 71.1086 61.6719 49.1533C66.3429 71.9724 64.9837 71.1494 84.57 63.0189C64.2131 68.2548 64.9473 66.7313 72.2006 88.6866Z" fill="#F8BF7A"/>
</g>
<g clip-path="url(#clip1_390_91)">
<path d="M178.296 349C153.687 346.065 156.066 343.686 159.001 368.295C161.935 343.686 164.314 346.065 139.705 349C164.314 351.934 161.935 354.313 159.001 329.704C156.066 354.313 153.687 351.934 178.296 349Z" fill="#F8BF7A"/>
<path d="M169.455 359.455C157.711 344.531 160.289 344.531 148.545 359.455C163.469 347.711 163.469 350.289 148.545 338.545C160.289 353.469 157.711 353.469 169.455 338.545C154.531 350.289 154.531 347.711 169.455 359.455Z" fill="#F8BF7A"/>
</g>
<g clip-path="url(#clip2_390_91)">
<path d="M144.351 643.455C167.827 667.333 159.495 670.121 167.451 635.725C146.149 662.04 143.662 652.701 174.347 661.618C150.872 637.74 159.203 634.952 151.248 669.348C172.549 643.034 175.036 652.373 144.351 643.455Z" fill="#F8BF7A"/>
<path d="M163.56 668.349C159.823 650.094 160.91 650.752 145.241 657.257C161.527 653.068 160.939 654.287 155.137 636.723C158.873 654.978 157.786 654.32 173.455 647.815C157.17 652.004 157.757 650.785 163.56 668.349Z" fill="#F8BF7A"/>
</g>
<defs>
<clipPath id="clip0_390_91">
<rect width="50" height="53.2196" fill="white" transform="matrix(0.855399 0.51797 -0.434126 0.900852 57.1035 32)"/>
</clipPath>
<clipPath id="clip1_390_91">
<rect width="40" height="40" fill="white" transform="translate(139 329)"/>
</clipPath>
<clipPath id="clip2_390_91">
<rect width="40" height="42.5757" fill="white" transform="matrix(0.855399 0.51797 -0.434126 0.900852 151.482 623)"/>
</clipPath>
</defs>
</svg>
