<svg width="1508" height="976" viewBox="0 0 1508 976" fill="none" xmlns="http://www.w3.org/2000/svg">
<path d="M1 1C154.183 99.5506 33.494 248.135 154.183 315.662C269.521 380.195 385.22 190.906 548.254 293.65C681.613 377.693 868.23 441.352 1002.4 395.202C1168.19 338.173 1331.88 355.967 1376.04 597.306C1414.49 807.414 1364.03 924.974 1507 975" stroke="white" stroke-width="2" stroke-linecap="round" stroke-dasharray="30 30"/>
<path d="M257.239 329.001C195.717 321.664 201.664 315.717 209.001 377.239C216.337 315.717 222.284 321.664 160.762 329.001C222.284 336.337 216.337 342.284 209.001 280.762C201.664 342.284 195.717 336.337 257.239 329.001Z" fill="#F8BF7A"/>
<path d="M235.137 355.137C205.778 317.828 212.223 317.828 182.863 355.137C220.173 325.778 220.173 332.223 182.863 302.863C212.223 340.173 205.778 340.173 235.137 302.863C197.828 332.223 197.828 325.778 235.137 355.137Z" fill="#F8BF7A"/>
<path d="M941.239 405.001C879.717 397.664 885.664 391.717 893.001 453.239C900.337 391.717 906.284 397.664 844.762 405.001C906.284 412.337 900.337 418.284 893.001 356.762C885.664 418.284 879.717 412.337 941.239 405.001Z" fill="#F8BF7A"/>
<path d="M919.137 431.137C889.778 393.828 896.223 393.828 866.863 431.137C904.173 401.778 904.173 408.223 866.863 378.863C896.223 416.173 889.778 416.173 919.137 378.863C881.828 408.223 881.828 401.778 919.137 431.137Z" fill="#F8BF7A"/>
<path d="M1440.24 786.001C1378.72 778.664 1384.66 772.717 1392 834.239C1399.34 772.717 1405.28 778.664 1343.76 786.001C1405.28 793.337 1399.34 799.284 1392 737.762C1384.66 799.284 1378.72 793.337 1440.24 786.001Z" fill="#F8BF7A"/>
<path d="M1418.14 812.137C1388.78 774.828 1395.22 774.828 1365.86 812.137C1403.17 782.778 1403.17 789.223 1365.86 759.863C1395.22 797.173 1388.78 797.173 1418.14 759.863C1380.83 789.223 1380.83 782.778 1418.14 812.137Z" fill="#F8BF7A"/>
</svg>
