<svg width="753" height="689" viewBox="0 0 753 689" fill="none" xmlns="http://www.w3.org/2000/svg">
<path d="M98.2395 50.0006C36.7173 42.6645 42.6645 36.7173 50.0006 98.2395C57.3367 36.7173 63.2839 42.6645 1.76172 50.0006C63.2839 57.3367 57.3367 63.2839 50.0006 1.76172C42.6645 63.2839 36.7173 57.3367 98.2395 50.0006Z" fill="#F8BF7A"/>
<path d="M76.1374 76.1374C46.7781 38.8281 53.2225 38.8281 23.8633 76.1374C61.1725 46.7781 61.1725 53.2225 23.8633 23.8633C53.2225 61.1725 46.7781 61.1725 76.1374 23.8633C38.8281 53.2225 38.8281 46.7781 76.1374 76.1374Z" fill="#F8BF7A"/>
<g clip-path="url(#clip0_467_101)">
<path d="M646.191 589.599C706.555 650.999 685.132 658.168 705.589 569.722C650.814 637.387 644.418 613.373 723.321 636.304C662.957 574.904 684.38 567.734 663.923 656.181C718.698 588.515 725.094 612.53 646.191 589.599Z" fill="#F8BF7A"/>
<path d="M695.585 653.612C685.976 606.67 688.772 608.363 648.48 625.089C690.357 614.318 688.847 617.452 673.926 572.287C683.535 619.229 680.739 617.536 721.03 600.81C679.153 611.581 680.664 608.447 695.585 653.612Z" fill="#F8BF7A"/>
</g>
<defs>
<clipPath id="clip0_467_101">
<rect width="102.857" height="109.48" fill="white" transform="matrix(0.855399 0.51797 -0.434126 0.900852 664.527 537)"/>
</clipPath>
</defs>
</svg>
